<svg xmlns="http://www.w3.org/2000/svg" viewBox="0 0 1280 489.45"><defs><style>.cls-1{fill:#fff;}</style></defs><g id="Layer_1" data-name="Layer 1"><rect width="1280" height="489.45"/></g><g id="Layer_2" data-name="Layer 2"><path class="cls-1" d="M249.62,248.65,182,221.44v15.11l68.72,30.06h0l0,0V250.33A1.8,1.8,0,0,0,249.62,248.65Z"/><path class="cls-1" d="M368,256.71c0-6.51,2.39-13.9,9.35-28.64L271.7,274.27v-31a3.79,3.79,0,0,1,2.39-3.53L362,204.4l-.65,2a35.87,35.87,0,0,0-1.53,7.18,4.16,4.16,0,0,0,3.35,4.66,3.93,3.93,0,0,0,1,.11c1.91,0,3.31-1.24,3.82-3.4.11-.45.21-.94.31-1.49a32.55,32.55,0,0,1,1.79-6.38l5.26-13.06-107.88-33L161,193.62V278l106.46,50.33,108.48-51.29-3.25-4.86A27.74,27.74,0,0,1,368,256.71ZM263.22,276.49a6,6,0,0,1-8.45,5.53L182,250.17v28.38l-12.48-5.9V203l11.85,4.69.63.32,77.48,31.15a6,6,0,0,1,3.78,5.59ZM178,197.3l89.5-27.39L357,197.3l-89.42,36ZM271.7,317V283.47l90-39.3-.62,2.07a36.15,36.15,0,0,0,2.1,26.37l.45.91Z"/><path class="cls-1" d="M478.16,240.19a23.23,23.23,0,0,0,6.58-8.38,28,28,0,0,0,2.39-11.9,27,27,0,0,0-1.52-9.08,23.78,23.78,0,0,0-4.3-7.51,23.17,23.17,0,0,0-11.07-6.87,59.5,59.5,0,0,0-16.48-2H436.15c-1.09,0-1.49.25-1.63.41s-.4.58-.4,1.87v77.48c0,1.23.27,1.68.43,1.84a2.06,2.06,0,0,0,1.48.44h9.72a2.15,2.15,0,0,0,1.6-.44,2.19,2.19,0,0,0,.43-1.47v-28h1c.26,0,.74,0,1.46.06l2.18.12,2.25.12,1.4.06a42.21,42.21,0,0,0,12.22-1.72A29.64,29.64,0,0,0,478.16,240.19ZM456,236.82h-1.28c-.7,0-1.47,0-2.29-.07s-1.53-.06-2.2-.06h-2.4V204.57h7.32a31.18,31.18,0,0,1,7.34.82,15.37,15.37,0,0,1,5.85,2.74,12.53,12.53,0,0,1,3.76,5,18.88,18.88,0,0,1,1.29,7.37c0,5.55-1.56,9.7-4.66,12.36S461.35,236.82,456,236.82Z"/><path class="cls-1" d="M550.67,268.39h-1a2.93,2.93,0,0,1-2.21-.83c-.67-.77-1-2.1-1-4.18V221.24c0-1.4-.57-1.67-1.56-1.67h-8.5c-1.17,0-1.46.5-1.55,1.26l-.44,6-1.61-2.19a15.41,15.41,0,0,0-6.11-4.79,20.32,20.32,0,0,0-8.63-1.85,23.44,23.44,0,0,0-17.47,7.81,29,29,0,0,0-5.63,9.69,39.84,39.84,0,0,0-2.13,13.56,42.42,42.42,0,0,0,1.43,11.1,26.63,26.63,0,0,0,4.39,9.19,21.61,21.61,0,0,0,7.43,6.27,22.9,22.9,0,0,0,10.65,2.32,18.15,18.15,0,0,0,4.89-.69,28.25,28.25,0,0,0,4.81-1.82,22.8,22.8,0,0,0,4.2-2.62,13.2,13.2,0,0,0,2.87-3l.29-.46h1.62l.15.81a7.85,7.85,0,0,0,2.59,4.59c1.34,1.17,3.49,1.76,6.39,1.76h5.83c1.2,0,1.43-.46,1.43-1.31v-5.7C551.86,268.73,551.68,268.39,550.67,268.39Zm-16.85-9.51-.11.22a16.09,16.09,0,0,1-2.07,3.1,14.75,14.75,0,0,1-3.12,2.8,19.22,19.22,0,0,1-4,2.05,12.85,12.85,0,0,1-4.61.85,11.86,11.86,0,0,1-6.36-1.66,13.49,13.49,0,0,1-4.33-4.4,19.34,19.34,0,0,1-2.43-6.26,35.83,35.83,0,0,1-.76-7.5,29.83,29.83,0,0,1,1.14-8.61,18.78,18.78,0,0,1,3.15-6.28,13.64,13.64,0,0,1,4.72-3.86A13,13,0,0,1,520.8,228a15.63,15.63,0,0,1,7.32,1.88,15.06,15.06,0,0,1,5.53,4.75l.17.26Z"/><path class="cls-1" d="M595.7,219.06c0-.33-.07-.5-.48-.62a12.25,12.25,0,0,0-1.62-.34,13.05,13.05,0,0,0-1.51-.11,14.83,14.83,0,0,0-8,2,23.37,23.37,0,0,0-5.94,5.42l-1.7,2.14-.21-6.65c0-.49,0-1.31-2-1.31h-7.77a2.71,2.71,0,0,0-1.6.42c-.28.2-.43.79-.43,1.62v52.82c0,1.49.52,2,1.91,2h8.87c1.39,0,1.91-.55,1.91-2v-39l.23-.28a17.42,17.42,0,0,1,5.74-4.58,15.16,15.16,0,0,1,6.69-1.61,14.6,14.6,0,0,1,3.48.38,2.09,2.09,0,0,0,.34,0c.23,0,.51,0,.66-.8.56-3.55,1-6,1.15-7.39C595.65,219.54,595.7,219.13,595.7,219.06Z"/><path class="cls-1" d="M654.51,219.57H647c-1.74,0-1.78.65-1.8,1l-.43,5.38-1.56-1.76a16.69,16.69,0,0,0-6.88-4.52,23.91,23.91,0,0,0-8.16-1.58,23.44,23.44,0,0,0-16.68,6.41A25.7,25.7,0,0,0,605,234.69,39.51,39.51,0,0,0,602.8,248a43.67,43.67,0,0,0,2.37,14.48,23.67,23.67,0,0,0,7.33,10.73,21.59,21.59,0,0,0,6.45,3.54,25.79,25.79,0,0,0,8.35,1.22,21.46,21.46,0,0,0,8.07-1.63A19.79,19.79,0,0,0,642,272l1.71-1.71v30.59c0,1.11.34,1.79,2,1.79h8.87c1.08,0,1.79-.36,1.79-2.16V221.49a2.53,2.53,0,0,0-.37-1.55C656,219.85,655.65,219.57,654.51,219.57Zm-10.78,41.66-.28.29a20.46,20.46,0,0,1-6,4.28,16.75,16.75,0,0,1-7.35,1.74,12.77,12.77,0,0,1-5.87-1.26,12.3,12.3,0,0,1-4-3.26,17.82,17.82,0,0,1-3.16-6.88,36,36,0,0,1-.94-8.3,39.22,39.22,0,0,1,.62-6.92,20,20,0,0,1,2.25-6.33,13.15,13.15,0,0,1,4.39-4.65,12.92,12.92,0,0,1,7.1-1.8,15,15,0,0,1,7.29,2,19.5,19.5,0,0,1,5.75,4.68l.23.28Z"/><path class="cls-1" d="M723.66,276.07c.12-.14.41-.6.41-2V221.36c0-1.09-.28-1.36-.36-1.42a3.07,3.07,0,0,0-1.68-.37h-8.62c-1.7,0-2,.69-2,1.79v39.2l-.34.3a27.26,27.26,0,0,1-6.94,4.29,19.58,19.58,0,0,1-7.81,1.78c-4,0-6.73-1.21-8.09-3.6a17.52,17.52,0,0,1-1.89-8.69V221.36c0-1.09-.28-1.36-.36-1.42a3.07,3.07,0,0,0-1.68-.37h-8.5c-1.79,0-2.16.72-2.16,1.79v35.83c0,6.31,1.44,11.42,4.29,15.18s7.46,5.56,13.9,5.56a29.25,29.25,0,0,0,18.68-6.7L712,270l.2,5c.09.92.45,1.53,1.92,1.53h7.77C723.15,276.47,723.55,276.19,723.66,276.07Z"/><path class="cls-1" d="M783.84,225a21.68,21.68,0,0,0-7.32-5.11,24.32,24.32,0,0,0-9.68-1.86,31.48,31.48,0,0,0-12,2.18,26.34,26.34,0,0,0-9.13,6.08,27.59,27.59,0,0,0-5.92,9.44,34,34,0,0,0-2.12,12.15,36.8,36.8,0,0,0,2,12.53,26.6,26.6,0,0,0,5.73,9.43,25,25,0,0,0,9.17,6,34.35,34.35,0,0,0,12.45,2.12,63.44,63.44,0,0,0,10.17-.9,38,38,0,0,0,9.84-2.91c.85-.37,1.34-.79,1.34-1.13,0-.05,0-.28-.21-1.2l-1.7-6.2c-.13-.47-.27-.64-.32-.66H786a3.54,3.54,0,0,0-1.22.25,50.63,50.63,0,0,1-7.44,2.17,38.9,38.9,0,0,1-7.86.81,17.85,17.85,0,0,1-12.64-4.64,18.53,18.53,0,0,1-5.72-12l-.11-1.1h36.69a4.45,4.45,0,0,0,2.54-.45c.23-.18.47-.82.47-2.07V246a45.47,45.47,0,0,0-1.43-11.53A21.25,21.25,0,0,0,783.84,225Zm-5.55,17.81h-27l.16-1.14a20.69,20.69,0,0,1,1.47-5.35,15.54,15.54,0,0,1,3-4.61,14.28,14.28,0,0,1,4.44-3.2,13.43,13.43,0,0,1,5.7-1.19,11.49,11.49,0,0,1,9.08,4.06,12.47,12.47,0,0,1,2.32,4.23,19,19,0,0,1,.9,4.86Z"/><path class="cls-1" d="M837.28,267.27c-.17-.7-.39-.7-.49-.7a5.4,5.4,0,0,0-1,.18,32.09,32.09,0,0,1-3.7,1.07,20,20,0,0,1-4.41.45,8.8,8.8,0,0,1-4-.77,6.74,6.74,0,0,1-2.57-2.23,9.4,9.4,0,0,1-1.44-3.86,34.86,34.86,0,0,1-.31-5V227.65H834c1.2,0,1.43-.46,1.43-1.31v-5.71c0-.6-.1-1.06-1.31-1.06H819.4V204c0-1.5-.59-1.67-1.25-1.67l-9.24,1.07a4.66,4.66,0,0,0-1.85.63c-.23.16-.36.63-.36,1.3v14.24h-7.19c-.65,0-1.18.11-1.18,1.43v4.61a4,4,0,0,0,.22,1.82s.28.22,1.45.22h6.7v28.08c0,2.18,0,4.18.07,5.93a32.81,32.81,0,0,0,.41,4.72,15.59,15.59,0,0,0,1.07,3.7,11.67,11.67,0,0,0,2.1,3.09,12.17,12.17,0,0,0,5.68,3.59,26.77,26.77,0,0,0,8.14,1.17,32.43,32.43,0,0,0,7-.77,33.75,33.75,0,0,0,6.22-2,1.55,1.55,0,0,0,1.1-1.92Z"/><path class="cls-1" d="M886.6,272.17a19.85,19.85,0,0,0,5.72-6.7,22.54,22.54,0,0,0,.92-16.85,19.93,19.93,0,0,0-3.35-5.73,26.06,26.06,0,0,0-5.15-4.61c-2-1.41-4.26-2.81-6.54-4.15L865.58,227a27.65,27.65,0,0,1-7.5-5.92,13.67,13.67,0,0,1-3.1-9.28,10.67,10.67,0,0,1,1.48-5.55,14.42,14.42,0,0,1,3.66-4.12,17.43,17.43,0,0,1,5.67-2.71,24,24,0,0,1,6.46-.89,32.65,32.65,0,0,1,7.71,1,59.24,59.24,0,0,1,7.67,2.46,2.84,2.84,0,0,0,.84.14h.23s.11-.06.22-.37l1.21-3.38c.17-.51.22-1-.89-1.44a39.56,39.56,0,0,0-8.35-2.48,53.13,53.13,0,0,0-9.12-.72,30,30,0,0,0-8.7,1.29,25.15,25.15,0,0,0-7.53,3.74,18.18,18.18,0,0,0-5.24,6.05,17.6,17.6,0,0,0-1.94,8.45,17,17,0,0,0,3.32,10.33,28.59,28.59,0,0,0,9,7.74l15.08,8.51c1.63,1,3.21,2,4.68,3a20.39,20.39,0,0,1,4,3.58,16.25,16.25,0,0,1,2.65,4.46,14.87,14.87,0,0,1,1,5.47,15.06,15.06,0,0,1-1.7,7.35,14.56,14.56,0,0,1-4.57,5,19.8,19.8,0,0,1-6.32,2.82,29.21,29.21,0,0,1-7.11.88,39.44,39.44,0,0,1-8.73-1,71.47,71.47,0,0,1-8.38-2.46,2.57,2.57,0,0,0-.91-.21h-.09a1.15,1.15,0,0,0-.25.42l-1.22,4c-.17.5-.21.92.82,1.28a59.87,59.87,0,0,0,18.51,3.11,37.45,37.45,0,0,0,10.06-1.35A25.9,25.9,0,0,0,886.6,272.17Z"/><path class="cls-1" d="M954,275.28v-35.7a37.18,37.18,0,0,0-1-8.75,16.15,16.15,0,0,0-3.08-6.47,14.35,14.35,0,0,0-5.57-4.14,21.67,21.67,0,0,0-8.59-1.5,31.2,31.2,0,0,0-10.3,1.83,27.67,27.67,0,0,0-9.32,5.45l-1.66,1.47V193.31c0-.94-.24-.94-.45-.94l-.71,0c-.3,0-1.21.15-3.84.53a1.73,1.73,0,0,0-.65.27,2,2,0,0,0-.13.94v81.12c0,1.11.4,1.19.95,1.19h3.88c.56,0,1-.08,1-1.19V231.12l.33-.3a34.71,34.71,0,0,1,8.88-5.63,24.67,24.67,0,0,1,10.13-2.4,16.45,16.45,0,0,1,7.17,1.38,10.7,10.7,0,0,1,4.48,4,15.82,15.82,0,0,1,2.14,5.7,38.3,38.3,0,0,1,.56,6.85v34.61c0,1.11.4,1.19,1,1.19H953C953.57,276.47,954,276.39,954,275.28Z"/><path class="cls-1" d="M1021.51,272.88h-.85a3.39,3.39,0,0,1-3.45-2,7.32,7.32,0,0,1-.53-2.84c0-1.13-.06-2.53-.06-4.29V221.12c0-1.19-.42-1.19-.82-1.19h-3.64c-1.11,0-1.19.4-1.19,1l-.2,7.28-1.71-2.19a17.41,17.41,0,0,0-7.24-5.46,22.91,22.91,0,0,0-8.61-1.81,22.62,22.62,0,0,0-9.54,2,23.31,23.31,0,0,0-7.8,5.89,27.91,27.91,0,0,0-5.33,9.56,40.17,40.17,0,0,0-1.95,13A41.76,41.76,0,0,0,970,259.91a27.93,27.93,0,0,0,4.1,9,20,20,0,0,0,17.22,8.62,17.8,17.8,0,0,0,5.63-.92,25,25,0,0,0,5.26-2.45,20,20,0,0,0,4.22-3.46,15.35,15.35,0,0,0,2.68-4l1.91.41v1.58a10.34,10.34,0,0,0,1.49,5.6,4.66,4.66,0,0,0,4.31,2.14h4.62a1.19,1.19,0,0,0,.43-.06h0a.38.38,0,0,0,0-.16v-3a1.73,1.73,0,0,0,0-.29A.57.57,0,0,0,1021.51,272.88Zm-10.66-15.4-.06.16a27.07,27.07,0,0,1-2.71,5.61,22.91,22.91,0,0,1-4.12,4.89,21,21,0,0,1-5.49,3.51,16.36,16.36,0,0,1-6.59,1.35,14.68,14.68,0,0,1-6.65-1.56,16,16,0,0,1-5.5-4.65,23.63,23.63,0,0,1-3.75-7.61,36.29,36.29,0,0,1-1.38-10.49c0-8,1.79-14.42,5.31-18.95a16.8,16.8,0,0,1,13.79-7,19.11,19.11,0,0,1,9.79,2.75,18.46,18.46,0,0,1,7.26,8l.1.2Z"/><path class="cls-1" d="M1059,219.07l-.07,0a9.88,9.88,0,0,0-1.76-.27c-.62,0-1.13-.06-1.52-.06A13.33,13.33,0,0,0,1048,221a18.17,18.17,0,0,0-5.13,4.94l-1.75,2.67-.21-7.47c0-1.1-.39-1.19-.94-1.19h-3.77c-.55,0-.94.09-.94,1.19v54.16c0,1.11.39,1.19.94,1.19h3.89c.55,0,.94-.08.94-1.19V231.75l.17-.25a22.22,22.22,0,0,1,6-6.17,12.9,12.9,0,0,1,7.18-2.42,17.83,17.83,0,0,1,2.07.13c.66.09,1.32.21,2,.37a1.3,1.3,0,0,0,0-.13s.63-4.15.64-4.18Z"/><path class="cls-1" d="M1112.53,268.72a29.53,29.53,0,0,0,4.81-9.46,38.74,38.74,0,0,0,1.66-11.42,41,41,0,0,0-1.83-12.86,26.27,26.27,0,0,0-5-9.07,20,20,0,0,0-7.4-5.38,24.37,24.37,0,0,0-9.45-1.81,25.51,25.51,0,0,0-10,2.1,20.88,20.88,0,0,0-7.89,5.68l-1.76,2.1v-7.48c0-.77-.17-1-.17-1s-.32-.22-1.26-.22h-3a1.57,1.57,0,0,0-.84.15,1.4,1.4,0,0,0-.1.68v80.63c0,1.11.39,1.19.94,1.19h3.52a2.41,2.41,0,0,0,1.16-.24c.05,0,.15-.23.15-.7V268.11l1.79,2.31a16.94,16.94,0,0,0,7.12,5.34,23.33,23.33,0,0,0,8.85,1.8,23.93,23.93,0,0,0,10.9-2.38A22.79,22.79,0,0,0,1112.53,268.72Zm-10.77,2.84a18.35,18.35,0,0,1-8.48,1.93,16.86,16.86,0,0,1-5.28-.84,22.22,22.22,0,0,1-4.83-2.22,19.22,19.22,0,0,1-4.1-3.33,18.76,18.76,0,0,1-2.94-4.1l-.12-.22v-30.3l.16-.25a20.51,20.51,0,0,1,7.78-6.77,21.83,21.83,0,0,1,10.18-2.67A17.22,17.22,0,0,1,1107.7,229c3.51,4.06,5.29,10.41,5.29,18.87a39.92,39.92,0,0,1-1.25,10.27,24.08,24.08,0,0,1-3.75,8.11A17.89,17.89,0,0,1,1101.76,271.56Z"/></g></svg>