<svg xmlns="http://www.w3.org/2000/svg" viewBox="0 0 1280 1052.86"><g id="Layer_2" data-name="Layer 2"><rect x="168.93" y="440.83" width="73.85" transform="translate(-280.5 427.81) rotate(-63.43)"/><path d="M553.8,543.88,251.71,422.36v75.46l303.37,132.7a4.53,4.53,0,0,0,4.31-.36,4.58,4.58,0,0,0,2.06-3.8l0-71.08A12.23,12.23,0,0,0,553.8,543.88Z"/><path d="M1074.47,583.21c0-30.71,13.21-66.69,45.53-134L653.16,653.36V524.47a12.3,12.3,0,0,1,7.7-11.4L1037,361.83a162.11,162.11,0,0,0-6.85,32.31c-1.46,13.68,7.62,22.8,18,25.13,11,2.45,22.59-2.79,26.15-17.66,1.91-8,3-18.92,9-33.81l24.81-61.57L630.23,160,160,303.87V679.2L630.23,901.5,1111.39,674l-17.07-25.49A117.44,117.44,0,0,1,1074.47,583.21Zm-498,106.72-324.76-142v124l-45.85-21.68V527.82h0V477.76h0V403.91h0V354.77l45.85,18.17v.26L593.5,510.62a22,22,0,0,1,13.8,20.43V669.76A22,22,0,0,1,576.47,689.93ZM251.69,323.77,630.23,208l378.54,115.81L630.57,476.1ZM653.16,839.94V703.14l382.45-167a162.84,162.84,0,0,0,9.46,118.55Z"/></g></svg>