<?xml version="1.0" encoding="UTF-8"?>
<svg xmlns="http://www.w3.org/2000/svg" xmlns:xlink="http://www.w3.org/1999/xlink" width="51px" height="51px" viewBox="0 0 51 51" version="1.1">
<g id="surface1">
<path style=" stroke:none;fill-rule:nonzero;fill:rgb(0%,27.058825%,55.29412%);fill-opacity:1;" d="M 22.066406 26.34375 L 10.027344 20.460938 L 10.027344 24.113281 L 22.117188 30.542969 C 22.171875 30.570312 22.238281 30.566406 22.289062 30.523438 C 22.339844 30.484375 22.371094 30.414062 22.371094 30.339844 L 22.371094 26.898438 C 22.371094 26.65625 22.25 26.4375 22.066406 26.34375 Z M 22.066406 26.34375 "/>
<path style=" stroke:none;fill-rule:nonzero;fill:rgb(0%,27.058825%,55.29412%);fill-opacity:1;" d="M 42.8125 28.25 C 42.8125 26.761719 43.335938 25.019531 44.625 21.761719 L 26.023438 31.648438 L 26.023438 25.40625 C 26.023438 25.164062 26.144531 24.945312 26.332031 24.851562 L 41.316406 17.527344 C 41.183594 18.035156 41.09375 18.5625 41.046875 19.09375 C 40.988281 19.753906 41.347656 20.195312 41.761719 20.308594 C 42.199219 20.429688 42.664062 20.175781 42.804688 19.453125 C 42.878906 19.066406 42.921875 18.539062 43.164062 17.816406 L 44.152344 14.835938 L 25.109375 7.753906 L 6.375 14.722656 L 6.375 32.898438 L 25.109375 43.664062 L 44.28125 32.648438 L 43.601562 31.414062 C 43.085938 30.476562 42.8125 29.375 42.8125 28.25 Z M 22.96875 33.417969 L 10.027344 26.542969 L 10.027344 32.546875 L 8.203125 31.496094 L 8.203125 17.1875 L 10.027344 18.066406 L 10.027344 18.078125 L 23.648438 24.734375 C 23.980469 24.898438 24.199219 25.289062 24.195312 25.722656 L 24.195312 32.441406 C 24.199219 32.800781 24.046875 33.136719 23.800781 33.335938 C 23.550781 33.53125 23.238281 33.5625 22.96875 33.417969 Z M 10.027344 15.683594 L 25.109375 10.078125 L 40.191406 15.6875 L 25.125 23.0625 Z M 26.023438 40.683594 L 26.023438 34.058594 L 41.261719 25.96875 C 40.789062 27.875 40.921875 29.925781 41.640625 31.710938 Z M 26.023438 40.683594 "/>
</g>
</svg>
