<svg xmlns="http://www.w3.org/2000/svg" viewBox="0 0 1280 1052.86"><defs><style>.cls-1{fill:#fff;}</style></defs><g id="Layer_1" data-name="Layer 1"><rect width="1280" height="1061.5"/></g><g id="Layer_2" data-name="Layer 2"><path class="cls-1" d="M553.42,544.81l-300.71-121v73.33L555.48,629.6a3.48,3.48,0,0,0,1.42.3,3.56,3.56,0,0,0,3.55-3.54l0-71.08A11.23,11.23,0,0,0,553.42,544.81Z"/><path class="cls-1" d="M1093.49,649.11a118.06,118.06,0,0,1-20-65.9c0-29.12,11.25-62.62,44.47-132L652.16,654.89V524.47a13.22,13.22,0,0,1,8.33-12.32l378.15-152-.66,2a160.5,160.5,0,0,0-6.8,32.1c-1.45,13.55,7.93,22,17.26,24.06a23.06,23.06,0,0,0,4.93.55c9.92,0,17.41-6.53,20-17.47.49-2,.93-4.28,1.39-6.67a137.2,137.2,0,0,1,7.63-27.28l24.4-60.57L630.23,161.05,161,304.61v374L630.23,900.39l479.68-226.76ZM585.3,692.8a23,23,0,0,1-9.23-1.95L252.71,549.41v124L204.86,650.8V528.5h0V353.3l47.85,19v.27L593.88,509.69a22.92,22.92,0,0,1,14.42,21.36V669.77A23,23,0,0,1,585.3,692.8ZM248.7,323.65,630.23,206.91l381.54,116.73L630.57,477.18ZM652.16,841.52v-139l385-168.15-.63,2.07a161.52,161.52,0,0,0,9.4,117.82l.45.91Z"/></g></svg>